# xmcd
#
# Track frame offsets:
#	150
#	8625
#	18300
#	27988
#	38510
#	48693
#	58713
#	71263
#	86005
#	99230
#	113888
#	130773
#	140905
#	151363
#	161543
#	171955
#	181630
#	192740
#	201973
#	212180
#	224445
#	234275
#
# Disc length: 3250 seconds
#
# Revision: 0
# Processed by: cddbd v1.4PL0 Copyright (c) Steve Scherf et al.
# Submitted via: dBpowerAMP V4.0
#
DISCID=320cb016
DTITLE=Roy Orbison - Legends
DYEAR=1900
DGENRE=
TTITLE0=Big hearted me
TTITLE1=Blue blue day
TTITLE2=What about me
TTITLE3=Lonesome number one
TTITLE4=A legend in my time
TTITLE5=I'm hurting
TTITLE6=Too soon to know
TTITLE7=Such a stranger
TTITLE8=Southern man
TTITLE9=Old love song
TTITLE10=Born to love me
TTITLE11=The same street
TTITLE12=Chicken  hearted
TTITLE13=Devil doll
TTITLE14=Domino
TTITLE15=Go go go
TTITLE16=I never knew
TTITLE17=It's too late
TTITLE18=Ooby dooby
TTITLE19=Trying to get to you
TTITLE20=You're gonna cry
TTITLE21=You're my baby
EXTD=
EXTT0=
EXTT1=
EXTT2=
EXTT3=
EXTT4=
EXTT5=
EXTT6=
EXTT7=
EXTT8=
EXTT9=
EXTT10=
EXTT11=
EXTT12=
EXTT13=
EXTT14=
EXTT15=
EXTT16=
EXTT17=
EXTT18=
EXTT19=
EXTT20=
EXTT21=
PLAYORDER=
